{
  "source": "C:\\Users\\Peter\\Desktop\\stuff\\MIUN\\quantitative_research\\video_compression\\videos\\BVI-HD\\BVI-HD_CDVL_videos\\ORIG\\PlasmaSlowRandom_1920x1080_60fps.mp4",
  "output": "C:\\Users\\Peter\\Desktop\\stuff\\MIUN\\quantitative_research\\video_compression\\compressed_videos\\BVI-HD\\h264\\4\\PlasmaSlowRandom_1920x1080_60fps_h264.mp4",
  "codec": "h264",
  "ok": "Input #0, mov,mp4,m4a,3gp,3g2,mj2, from 'C:\\Users\\Peter\\Desktop\\stuff\\MIUN\\quantitative_research\\video_compression\\videos\\BVI-HD\\BVI-HD_CDVL_videos\\ORIG\\PlasmaSlowRandom_1920x1080_60fps.mp4':\n  Metadata:\n    major_brand     : isom\n    minor_version   : 512\n    compatible_brands: isomiso2avc1mp41\n    encoder         : Lavf54.28.101\n  Duration: 00:00:05.00, start: 0.000000, bitrate: 23030 kb/s\n  Stream #0:0[0x1](und): Video: h264 (High 4:4:4 Predictive) (avc1 / 0x31637661), yuv420p(progressive), 1920x1080, 23026 kb/s, 60 fps, 60 tbr, 60 tbn (default)\n    Metadata:\n      handler_name    : VideoHandler\n      vendor_id       : [0][0][0][0]\n[out#0/mp4 @ 000001f1ba45a600] Codec AVOption b:a (set bitrate (in bits/s)) has not been used for any stream. The most likely reason is either wrong type (e.g. a video option with no video streams) or that it is a private option of some decoder which was not actually used for any stream.\nStream mapping:\n  Stream #0:0 -> #0:0 (h264 (native) -> h264 (libx264))\nPress [q] to stop, [?] for help\n[libx264 @ 000001f1bc0a4840] using cpu capabilities: MMX2 SSE2Fast SSSE3 SSE4.2 AVX FMA3 BMI2 AVX2\n[libx264 @ 000001f1bc0a4840] profile High, level 5.0, 4:2:0, 8-bit\n[libx264 @ 000001f1bc0a4840] 264 - core 165 r3222 b35605a - H.264/MPEG-4 AVC codec - Copyleft 2003-2025 - http://www.videolan.org/x264.html - options: cabac=1 ref=5 deblock=1:0:0 analyse=0x3:0x113 me=hex subme=8 psy=1 psy_rd=1.00:0.00 mixed_ref=1 me_range=16 chroma_me=1 trellis=2 8x8dct=1 cqm=0 deadzone=21,11 fast_pskip=1 chroma_qp_offset=-2 threads=18 lookahead_threads=3 sliced_threads=0 nr=0 decimate=1 interlaced=0 bluray_compat=0 constrained_intra=0 bframes=3 b_pyramid=2 b_adapt=1 b_bias=0 direct=3 weightb=1 open_gop=0 weightp=2 keyint=250 keyint_min=25 scenecut=40 intra_refresh=0 rc_lookahead=50 rc=cbr mbtree=1 bitrate=4000 ratetol=1.0 qcomp=0.60 qpmin=0 qpmax=69 qpstep=4 vbv_maxrate=4000 vbv_bufsize=4000 nal_hrd=none filler=0 ip_ratio=1.40 aq=1:1.00\nOutput #0, mp4, to 'C:\\Users\\Peter\\Desktop\\stuff\\MIUN\\quantitative_research\\video_compression\\compressed_videos\\BVI-HD\\h264\\4\\PlasmaSlowRandom_1920x1080_60fps_h264.mp4':\n  Metadata:\n    major_brand     : isom\n    minor_version   : 512\n    compatible_brands: isomiso2avc1mp41\n    encoder         : Lavf62.3.100\n  Stream #0:0(und): Video: h264 (avc1 / 0x31637661), yuv420p(tv, progressive), 1920x1080, q=2-31, 4000 kb/s, 60 fps, 15360 tbn (default)\n    Metadata:\n      encoder         : Lavc62.11.100 libx264\n      handler_name    : VideoHandler\n      vendor_id       : [0][0][0][0]\n    Side data:\n      cpb: bitrate max/min/avg: 4000000/0/4000000 buffer size: 4000000 vbv_delay: N/A\nframe=    0 fps=0.0 q=0.0 size=       0KiB time=N/A bitrate=N/A speed=N/A elapsed=0:00:00.51    \nframe=   52 fps= 49 q=22.0 size=     256KiB time=00:00:00.83 bitrate=2517.0kbits/s speed=0.79x elapsed=0:00:01.05    \nframe=  120 fps= 76 q=21.0 size=     768KiB time=00:00:01.96 bitrate=3199.2kbits/s speed=1.25x elapsed=0:00:01.57    \nframe=  159 fps= 76 q=23.0 size=    1024KiB time=00:00:02.61 bitrate=3206.0kbits/s speed=1.25x elapsed=0:00:02.09    \nframe=  215 fps= 82 q=22.0 size=    1536KiB time=00:00:03.55 bitrate=3544.6kbits/s speed=1.35x elapsed=0:00:02.63    \n[mp4 @ 000001f1ba45a700] Starting second pass: moving the moov atom to the beginning of the file\n[out#0/mp4 @ 000001f1ba45a600] video:2238KiB audio:0KiB subtitle:0KiB other streams:0KiB global headers:0KiB muxing overhead: 0.195968%\nframe=  300 fps= 96 q=-1.0 Lsize=    2242KiB time=00:00:04.96 bitrate=3698.6kbits/s speed=1.59x elapsed=0:00:03.11    \n[libx264 @ 000001f1bc0a4840] frame I:3     Avg QP: 2.92  size: 12087\n[libx264 @ 000001f1bc0a4840] frame P:76    Avg QP:11.43  size:  9024\n[libx264 @ 000001f1bc0a4840] frame B:221   Avg QP:14.00  size:  7099\n[libx264 @ 000001f1bc0a4840] consecutive B-frames:  1.3%  1.3%  0.0% 97.3%\n[libx264 @ 000001f1bc0a4840] mb I  I16..4: 95.6%  4.3%  0.1%\n[libx264 @ 000001f1bc0a4840] mb P  I16..4:  1.5%  3.8%  0.1%  P16..4:  0.9%  0.3%  0.1%  0.0%  0.0%    skip:93.2%\n[libx264 @ 000001f1bc0a4840] mb B  I16..4:  0.0%  1.5%  0.1%  B16..8:  1.9%  1.1%  0.2%  direct: 0.4%  skip:94.8%  L0:44.2% L1:36.4% BI:19.5%\n[libx264 @ 000001f1bc0a4840] 8x8 transform intra:59.5% inter:90.8%\n[libx264 @ 000001f1bc0a4840] direct mvs  spatial:95.5% temporal:4.5%\n[libx264 @ 000001f1bc0a4840] coded y,uvDC,uvAC intra: 50.3% 56.9% 55.9% inter: 1.6% 2.2% 1.8%\n[libx264 @ 000001f1bc0a4840] i16 v,h,dc,p: 98%  0%  1%  0%\n[libx264 @ 000001f1bc0a4840] i8 v,h,dc,ddl,ddr,vr,hd,vl,hu: 16% 18% 22%  5%  7%  7%  9%  7%  9%\n[libx264 @ 000001f1bc0a4840] i4 v,h,dc,ddl,ddr,vr,hd,vl,hu: 15% 17% 10%  7% 13% 10% 14%  7%  8%\n[libx264 @ 000001f1bc0a4840] i8c dc,h,v,p: 68% 13% 10%  9%\n[libx264 @ 000001f1bc0a4840] Weighted P-Frames: Y:1.3% UV:1.3%\n[libx264 @ 000001f1bc0a4840] ref P L0: 57.5%  2.4% 19.0% 11.4%  9.4%  0.3%\n[libx264 @ 000001f1bc0a4840] ref B L0: 81.2% 13.6%  3.9%  1.3%\n[libx264 @ 000001f1bc0a4840] ref B L1: 96.2%  3.8%\n[libx264 @ 000001f1bc0a4840] kb/s:3665.49\n",
  "seconds": 3.292085886001587,
  "probe_out": {}
}